<?xml version="1.0" encoding="UTF-8" standalone="no"?>
<!DOCTYPE svg PUBLIC "-//W3C//DTD SVG 1.1//EN"
 "http://www.w3.org/Graphics/SVG/1.1/DTD/svg11.dtd">
<!-- Generated by graphviz version 2.28.0 (20130119.1013)
 -->
<!-- Title: G Pages: 1 -->
<svg width="326pt" height="1206pt"
 viewBox="0.00 0.00 326.00 1206.00" xmlns="http://www.w3.org/2000/svg" xmlns:xlink="http://www.w3.org/1999/xlink">
<g id="graph1" class="graph" transform="scale(1 1) rotate(0) translate(4 1202)">
<title>G</title>
<polygon fill="white" stroke="white" points="-4,5 -4,-1202 323,-1202 323,5 -4,5"/>
<g id="graph2" class="cluster"><title>cluster_Core</title>
<polyline fill="none" stroke="gray" points="20,-8 298,-8 "/>
<path fill="none" stroke="gray" d="M298,-8C304,-8 310,-14 310,-20"/>
<polyline fill="none" stroke="gray" points="310,-20 310,-1178 "/>
<path fill="none" stroke="gray" d="M310,-1178C310,-1184 304,-1190 298,-1190"/>
<polyline fill="none" stroke="gray" points="298,-1190 20,-1190 "/>
<path fill="none" stroke="gray" d="M20,-1190C14,-1190 8,-1184 8,-1178"/>
<polyline fill="none" stroke="gray" points="8,-1178 8,-20 "/>
<path fill="none" stroke="gray" d="M8,-20C8,-14 14,-8 20,-8"/>
<text text-anchor="middle" x="159" y="-1175" font-family="Times,serif" font-size="11.00" fill="gray">Core</text>
</g>
<g id="graph3" class="cluster"><title>cluster_Core\Store</title>
<polyline fill="none" stroke="gray" points="28,-872 290,-872 "/>
<path fill="none" stroke="gray" d="M290,-872C296,-872 302,-878 302,-884"/>
<polyline fill="none" stroke="gray" points="302,-884 302,-1149 "/>
<path fill="none" stroke="gray" d="M302,-1149C302,-1155 296,-1161 290,-1161"/>
<polyline fill="none" stroke="gray" points="290,-1161 28,-1161 "/>
<path fill="none" stroke="gray" d="M28,-1161C22,-1161 16,-1155 16,-1149"/>
<polyline fill="none" stroke="gray" points="16,-1149 16,-884 "/>
<path fill="none" stroke="gray" d="M16,-884C16,-878 22,-872 28,-872"/>
<text text-anchor="middle" x="159" y="-1146" font-family="Times,serif" font-size="11.00" fill="gray">Store</text>
</g>
<!-- \\Core\\Store\\Apc -->
<g id="node3" class="node"><title>\\Core\\Store\\Apc</title>
<a xlink:href="Store.Apc.html" xlink:title="Apc" target="_parent">
<polygon fill="none" stroke="black" points="286,-1132 232,-1132 232,-1096 286,-1096 286,-1132"/>
<text text-anchor="middle" x="259" y="-1109.6" font-family="Courier,monospace" font-size="11.00">Apc</text>
</a>
</g>
<!-- \\Core\\Store\\StorageInterface -->
<g id="node8" class="node"><title>\\Core\\Store\\StorageInterface</title>
<a xlink:href="Store.StorageInterface.html" xlink:title="StorageInterface" target="_parent">
<polygon fill="none" stroke="black" points="145.618,-1024 24.3822,-1024 24.3822,-988 145.618,-988 145.618,-1024"/>
<text text-anchor="middle" x="85" y="-1001.6" font-family="Courier,monospace" font-size="11.00">StorageInterface</text>
</a>
</g>
<!-- \\Core\\Store\\Apc&#45;&gt;\\Core\\Store\\StorageInterface -->
<g id="edge6" class="edge"><title>\\Core\\Store\\Apc&#45;&gt;\\Core\\Store\\StorageInterface</title>
<path fill="none" stroke="black" stroke-dasharray="1,5" d="M231.877,-1097.6C203.014,-1079.47 156.288,-1050.13 123.515,-1029.56"/>
<polygon fill="none" stroke="black" points="124.998,-1026.35 114.668,-1024 121.276,-1032.28 124.998,-1026.35"/>
</g>
<!-- \\Core\\Store\\Cookie -->
<g id="node4" class="node"><title>\\Core\\Store\\Cookie</title>
<a xlink:href="Store.Cookie.html" xlink:title="Cookie" target="_parent">
<polygon fill="none" stroke="black" points="286.608,-1078 231.392,-1078 231.392,-1042 286.608,-1042 286.608,-1078"/>
<text text-anchor="middle" x="259" y="-1055.6" font-family="Courier,monospace" font-size="11.00">Cookie</text>
</a>
</g>
<!-- \\Core\\Store\\Cookie&#45;&gt;\\Core\\Store\\StorageInterface -->
<g id="edge8" class="edge"><title>\\Core\\Store\\Cookie&#45;&gt;\\Core\\Store\\StorageInterface</title>
<path fill="none" stroke="black" stroke-dasharray="1,5" d="M231.125,-1051.56C210.34,-1045.04 180.625,-1035.71 153.491,-1027.19"/>
<polygon fill="none" stroke="black" points="154.222,-1023.75 143.632,-1024.09 152.125,-1030.43 154.222,-1023.75"/>
</g>
<!-- \\Core\\Store\\Memcache -->
<g id="node5" class="node"><title>\\Core\\Store\\Memcache</title>
<a xlink:href="Store.Memcache.html" xlink:title="Memcache" target="_parent">
<polygon fill="none" stroke="black" points="293.309,-1024 224.691,-1024 224.691,-988 293.309,-988 293.309,-1024"/>
<text text-anchor="middle" x="259" y="-1001.6" font-family="Courier,monospace" font-size="11.00">Memcache</text>
</a>
</g>
<!-- \\Core\\Store\\Memcache&#45;&gt;\\Core\\Store\\StorageInterface -->
<g id="edge10" class="edge"><title>\\Core\\Store\\Memcache&#45;&gt;\\Core\\Store\\StorageInterface</title>
<path fill="none" stroke="black" stroke-dasharray="1,5" d="M224.428,-1006C204.924,-1006 179.603,-1006 155.958,-1006"/>
<polygon fill="none" stroke="black" points="155.95,-1002.5 145.95,-1006 155.95,-1009.5 155.95,-1002.5"/>
</g>
<!-- \\Core\\Store\\Request -->
<g id="node6" class="node"><title>\\Core\\Store\\Request</title>
<a xlink:href="Store.Request.html" xlink:title="Request" target="_parent">
<polygon fill="none" stroke="black" points="290.208,-970 227.792,-970 227.792,-934 290.208,-934 290.208,-970"/>
<text text-anchor="middle" x="259" y="-947.6" font-family="Courier,monospace" font-size="11.00">Request</text>
</a>
</g>
<!-- \\Core\\Store\\Request&#45;&gt;\\Core\\Store\\StorageInterface -->
<g id="edge12" class="edge"><title>\\Core\\Store\\Request&#45;&gt;\\Core\\Store\\StorageInterface</title>
<path fill="none" stroke="black" stroke-dasharray="1,5" d="M227.646,-961.53C207.036,-968 178.955,-976.816 153.23,-984.893"/>
<polygon fill="none" stroke="black" points="151.999,-981.611 143.506,-987.946 154.095,-988.29 151.999,-981.611"/>
</g>
<!-- \\Core\\Store\\Session -->
<g id="node7" class="node"><title>\\Core\\Store\\Session</title>
<a xlink:href="Store.Session.html" xlink:title="Session" target="_parent">
<polygon fill="none" stroke="black" points="290.208,-916 227.792,-916 227.792,-880 290.208,-880 290.208,-916"/>
<text text-anchor="middle" x="259" y="-893.6" font-family="Courier,monospace" font-size="11.00">Session</text>
</a>
</g>
<!-- \\Core\\Store\\Session&#45;&gt;\\Core\\Store\\StorageInterface -->
<g id="edge14" class="edge"><title>\\Core\\Store\\Session&#45;&gt;\\Core\\Store\\StorageInterface</title>
<path fill="none" stroke="black" stroke-dasharray="1,5" d="M230.224,-916.261C226.082,-919.124 221.897,-922.097 218,-925 187.282,-947.877 182.521,-961.376 147.537,-982.669"/>
<polygon fill="none" stroke="black" points="145.376,-979.878 138.512,-987.949 148.911,-985.92 145.376,-979.878"/>
</g>
<!-- \\Core\\Cache -->
<g id="node9" class="node"><title>\\Core\\Cache</title>
<a xlink:href="Cache.html" xlink:title="Cache" target="_parent">
<polygon fill="none" stroke="black" points="286,-862 232,-862 232,-826 286,-826 286,-862"/>
<text text-anchor="middle" x="259" y="-839.6" font-family="Courier,monospace" font-size="11.00">Cache</text>
</a>
</g>
<!-- \\Core\\Config -->
<g id="node10" class="node"><title>\\Core\\Config</title>
<a xlink:href="Config.html" xlink:title="Config" target="_parent">
<polygon fill="none" stroke="black" points="286.608,-808 231.392,-808 231.392,-772 286.608,-772 286.608,-808"/>
<text text-anchor="middle" x="259" y="-785.6" font-family="Courier,monospace" font-size="11.00">Config</text>
</a>
</g>
<!-- \\Core\\Controller -->
<g id="node11" class="node"><title>\\Core\\Controller</title>
<a xlink:href="Controller.html" xlink:title="Controller" target="_parent">
<polygon fill="none" stroke="black" points="300.011,-754 217.989,-754 217.989,-718 300.011,-718 300.011,-754"/>
<text text-anchor="middle" x="259" y="-731.6" font-family="Courier,monospace" font-size="11.00">Controller</text>
</a>
</g>
<!-- \\Core\\Database -->
<g id="node12" class="node"><title>\\Core\\Database</title>
<a xlink:href="Database.html" xlink:title="Database" target="_parent">
<polygon fill="none" stroke="black" points="119.309,-484 50.6911,-484 50.6911,-448 119.309,-448 119.309,-484"/>
<text text-anchor="middle" x="85" y="-461.6" font-family="Courier,monospace" font-size="11.00">Database</text>
</a>
</g>
<!-- \\Core\\Dispatcher -->
<g id="node13" class="node"><title>\\Core\\Dispatcher</title>
<a xlink:href="Dispatcher.html" xlink:title="Dispatcher" target="_parent">
<polygon fill="none" stroke="black" points="300.011,-700 217.989,-700 217.989,-664 300.011,-664 300.011,-700"/>
<text text-anchor="middle" x="259" y="-677.6" font-family="Courier,monospace" font-size="11.00">Dispatcher</text>
</a>
</g>
<!-- \\Core\\Event -->
<g id="node14" class="node"><title>\\Core\\Event</title>
<a xlink:href="Event.html" xlink:title="Event" target="_parent">
<polygon fill="none" stroke="black" points="286,-646 232,-646 232,-610 286,-610 286,-646"/>
<text text-anchor="middle" x="259" y="-623.6" font-family="Courier,monospace" font-size="11.00">Event</text>
</a>
</g>
<!-- \\Core\\Format -->
<g id="node15" class="node"><title>\\Core\\Format</title>
<a xlink:href="Format.html" xlink:title="Format" target="_parent">
<polygon fill="none" stroke="black" points="286.608,-592 231.392,-592 231.392,-556 286.608,-556 286.608,-592"/>
<text text-anchor="middle" x="259" y="-569.6" font-family="Courier,monospace" font-size="11.00">Format</text>
</a>
</g>
<!-- \\Core\\Front -->
<g id="node16" class="node"><title>\\Core\\Front</title>
<a xlink:href="Front.html" xlink:title="Front" target="_parent">
<polygon fill="none" stroke="black" points="286,-538 232,-538 232,-502 286,-502 286,-538"/>
<text text-anchor="middle" x="259" y="-515.6" font-family="Courier,monospace" font-size="11.00">Front</text>
</a>
</g>
<!-- \\Core\\Model -->
<g id="node17" class="node"><title>\\Core\\Model</title>
<a xlink:href="Model.html" xlink:title="Model" target="_parent">
<polygon fill="none" stroke="black" points="286,-484 232,-484 232,-448 286,-448 286,-484"/>
<text text-anchor="middle" x="259" y="-461.6" font-family="Courier,monospace" font-size="11.00">Model</text>
</a>
</g>
<!-- \\Core\\Model&#45;&gt;\\Core\\Database -->
<g id="edge4" class="edge"><title>\\Core\\Model&#45;&gt;\\Core\\Database</title>
<path fill="none" stroke="black" d="M231.877,-466C204.741,-466 161.815,-466 129.54,-466"/>
<polygon fill="none" stroke="black" points="129.469,-462.5 119.469,-466 129.469,-469.5 129.469,-462.5"/>
</g>
<!-- \\Core\\Notice -->
<g id="node18" class="node"><title>\\Core\\Notice</title>
<a xlink:href="Notice.html" xlink:title="Notice" target="_parent">
<polygon fill="none" stroke="black" points="286.608,-430 231.392,-430 231.392,-394 286.608,-394 286.608,-430"/>
<text text-anchor="middle" x="259" y="-407.6" font-family="Courier,monospace" font-size="11.00">Notice</text>
</a>
</g>
<!-- \\Core\\Profiler -->
<g id="node19" class="node"><title>\\Core\\Profiler</title>
<a xlink:href="Profiler.html" xlink:title="Profiler" target="_parent">
<polygon fill="none" stroke="black" points="293.309,-376 224.691,-376 224.691,-340 293.309,-340 293.309,-376"/>
<text text-anchor="middle" x="259" y="-353.6" font-family="Courier,monospace" font-size="11.00">Profiler</text>
</a>
</g>
<!-- \\Core\\Request -->
<g id="node20" class="node"><title>\\Core\\Request</title>
<a xlink:href="Request.html" xlink:title="Request" target="_parent">
<polygon fill="none" stroke="black" points="290.208,-322 227.792,-322 227.792,-286 290.208,-286 290.208,-322"/>
<text text-anchor="middle" x="259" y="-299.6" font-family="Courier,monospace" font-size="11.00">Request</text>
</a>
</g>
<!-- \\Core\\Route -->
<g id="node21" class="node"><title>\\Core\\Route</title>
<a xlink:href="Route.html" xlink:title="Route" target="_parent">
<polygon fill="none" stroke="black" points="286,-268 232,-268 232,-232 286,-232 286,-268"/>
<text text-anchor="middle" x="259" y="-245.6" font-family="Courier,monospace" font-size="11.00">Route</text>
</a>
</g>
<!-- \\Core\\Router -->
<g id="node22" class="node"><title>\\Core\\Router</title>
<a xlink:href="Router.html" xlink:title="Router" target="_parent">
<polygon fill="none" stroke="black" points="286.608,-214 231.392,-214 231.392,-178 286.608,-178 286.608,-214"/>
<text text-anchor="middle" x="259" y="-191.6" font-family="Courier,monospace" font-size="11.00">Router</text>
</a>
</g>
<!-- \\Core\\Validate -->
<g id="node23" class="node"><title>\\Core\\Validate</title>
<a xlink:href="Validate.html" xlink:title="Validate" target="_parent">
<polygon fill="none" stroke="black" points="293.309,-160 224.691,-160 224.691,-124 293.309,-124 293.309,-160"/>
<text text-anchor="middle" x="259" y="-137.6" font-family="Courier,monospace" font-size="11.00">Validate</text>
</a>
</g>
<!-- \\Core\\View -->
<g id="node24" class="node"><title>\\Core\\View</title>
<a xlink:href="View.html" xlink:title="View" target="_parent">
<polygon fill="none" stroke="black" points="286,-106 232,-106 232,-70 286,-70 286,-106"/>
<text text-anchor="middle" x="259" y="-83.6" font-family="Courier,monospace" font-size="11.00">View</text>
</a>
</g>
<!-- \\Core\\ViewHelper -->
<g id="node25" class="node"><title>\\Core\\ViewHelper</title>
<a xlink:href="ViewHelper.html" xlink:title="ViewHelper" target="_parent">
<polygon fill="none" stroke="black" points="300.011,-52 217.989,-52 217.989,-16 300.011,-16 300.011,-52"/>
<text text-anchor="middle" x="259" y="-29.6" font-family="Courier,monospace" font-size="11.00">ViewHelper</text>
</a>
</g>
</g>
</svg>
